#!OML:ASF E:\emotionWalksFemale\Project 1\Capture day 1\Session 1\Female1.ASF
:FULLY-SPECIFIED
:DEGREES
1455
root -3.09501 15.2867 -33.7657 -5.71506 99.1017 349.089
lowerback 8.25242 1.45982 3.70116
upperback -3.28634 2.39221 -0.0557898
thorax -7.95897 0.981503 -2.49615
lowerneck -6.82295 -5.95279 -10.5356
upperneck 13.2209 -7.61787 6.83711
head 5.78435 -3.74062 3.30971
rclavicle -5.4144e-014 -2.38542e-015
rhumerus -31.6594 21.9254 -93.3439
rradius 45.3935
rwrist 12.0023
rhand -7.00283 -48.0003
rfingers 7.12502
rthumb 18.8681 -437.105
lclavicle -5.4144e-014 -2.38542e-015
lhumerus -49.9497 10.6487 73.4815
lradius 36.2964
lwrist -22.7338
lhand -8.25942 -25.5765
lfingers 7.12502
lthumb 17.6592 3.64162
rfemur 14.2141 16.4249 34.9109
rtibia 2.38542e-014
rfoot -11.8271 -15.8273
rtoes -8.63201
lfemur -36.5177 -24.2478 -12.6152
ltibia 26.7787
lfoot -29.3915 24.1318
ltoes -2.25686
1456
root -2.98462 15.2697 -33.8026 -2.39321 98.5815 352.569
lowerback 8.2694 1.52611 3.9698
upperback -3.22385 2.52943 0.173579
thorax -7.89258 1.04429 -2.42345
lowerneck -7.06123 -5.95587 -10.4661
upperneck 13.4288 -7.60238 6.75514
head 5.8831 -3.73073 3.26699
rclavicle 4.01918e-014 2.3059e-014
rhumerus -31.4485 22.0982 -93.1363
rradius 45.1887
rwrist 12.0886
rhand -6.7289 -48.5575
rfingers 7.12502
rthumb 19.1315 -437.637
lclavicle 4.01918e-014 2.3059e-014
lhumerus -49.2823 10.6994 73.2531
lradius 36.6891
lwrist -22.2125
lhand -9.08479 -25.7329
lfingers 7.12502
lthumb 16.8648 3.55477
rfemur 14.743 16.0758 35.5279
rtibia -2.54444e-014
rfoot -11.8757 -15.3518
rtoes -6.9025
lfemur -37.2757 -27.5102 -10.2618
ltibia 26.1096
lfoot -32.2214 26.2356
ltoes 3.81945
1457
root -2.8796 15.2529 -33.8469 -0.448795 98.2509 354.558
lowerback 8.31817 1.53684 4.11203
upperback -3.22754 2.57416 0.306632
thorax -7.92275 1.06234 -2.37107
lowerneck -7.13816 -5.94472 -10.3365
upperneck 13.4193 -7.58062 6.63964
head 5.88179 -3.7206 3.20927
rclavicle -1.83379e-014 3.18055e-015
rhumerus -31.3292 21.9935 -92.9904
rradius 44.9024
rwrist 12.5512
rhand -6.45128 -48.7487
rfingers 7.12502
rthumb 19.3985 -437.801
lclavicle -1.83379e-014 3.18055e-015
lhumerus -48.6668 10.9249 72.8962
lradius 37.0516
lwrist -21.7547
lhand -9.73539 -25.8395
lfingers 7.12502
lthumb 16.2385 3.5005
rfemur 15.1383 15.5995 35.8248
rtibia 2.8625e-014
rfoot -11.6631 -15.1392
rtoes -6.0714
lfemur -38.2533 -30.2331 -8.42136
ltibia 25.7794
lfoot -34.93 28.0502
ltoes 8.87455
1458
root -2.77903 15.2368 -33.9047 0.944845 98.0451 355.911
lowerback 8.38101 1.49216 4.56172
upperback -3.2713 2.56937 0.26733
thorax -7.98849 1.03363 -2.66734
lowerneck -7.06073 -5.90845 -10.3459
upperneck 13.191 -7.5569 6.80009
head 5.80078 -3.7013 3.26666
rclavicle -6.54623e-014 -1.19271e-014
rhumerus -31.1039 21.5906 -92.8097
rradius 44.3823
rwrist 12.9323
rhand -6.70932 -48.2514
rfingers 7.12502
rthumb 19.1504 -437.329
lclavicle -6.54623e-014 -1.19271e-014
lhumerus -48.0212 10.8606 72.5842
lradius 37.4073
lwrist -20.9263
lhand -10.8364 -25.5553
lfingers 7.12502
lthumb 15.1781 3.86799
rfemur 15.4062 15.0498 35.8832
rtibia -1.59028e-015
rfoot -11.4309 -14.8507
rtoes -6.86268
lfemur -39.3277 -32.6341 -6.83992
ltibia 25.5043
lfoot -36.9981 29.9229
ltoes 11.0918
1459
root -2.67265 15.224 -33.9459 2.18902 97.0863 357.013
lowerback 8.39431 1.73141 4.7482
upperback -3.35999 2.90752 0.158867
thorax -8.0523 1.18275 -2.93794
lowerneck -7.01962 -5.87347 -10.2837
upperneck 13.1369 -7.54247 6.95573
head 5.77837 -3.68178 3.30894
rclavicle -5.33985e-014 -7.55382e-015
rhumerus -31.1558 22.1862 -92.9412
rradius 43.7222
rwrist 12.2191
rhand -7.44365 -48.2879
rfingers 7.12502
rthumb 18.4441 -437.434
lclavicle -5.33985e-014 -7.55382e-015
lhumerus -47.3691 10.3255 72.3297
lradius 37.8683
lwrist -19.6369
lhand -11.7128 -25.5473
lfingers 7.12502
lthumb 14.3337 3.93794
rfemur 15.8215 15.2522 35.9087
rtibia 4.45278e-014
rfoot -11.4921 -14.3174
rtoes -6.30107
lfemur -40.0787 -34.1037 -5.44442
ltibia 25.3448
lfoot -39.0711 30.8866
ltoes 13.9602
1460
root -2.56891 15.22 -34.005 1.98716 96.8829 356.81
lowerback 8.61052 1.66373 5.05243
upperback -3.46108 2.85937 0.0274572
thorax -8.27281 1.13022 -3.25312
lowerneck -7.05772 -5.8467 -10.0414
upperneck 13.2605 -7.51144 6.78594
head 5.80475 -3.66475 3.21759
rclavicle 3.44891e-014 2.46493e-014
rhumerus -31.5163 23.7851 -93.1699
rradius 43.3073
rwrist 10.8897
rhand -7.83659 -48.4452
rfingers 7.12502
rthumb 18.0661 -437.626
lclavicle 3.44891e-014 2.46493e-014
lhumerus -46.8591 9.89194 72.1814
lradius 38.3789
lwrist -18.1533
lhand -12.5295 -25.8403
lfingers 7.12502
lthumb 13.5467 3.69906
rfemur 16.223 14.6937 35.7061
rtibia 3.81667e-014
rfoot -11.3853 -13.9424
rtoes -7.15342
lfemur -40.3994 -34.4765 -5.37117
ltibia 25.4109
lfoot -39.1882 30.3411
ltoes 15.6219
1461
root -2.45441 15.2194 -34.0443 3.90932 96.3599 358.678
lowerback 8.53833 1.73982 4.92478
upperback -3.49742 2.95883 0.202039
thorax -8.27587 1.19116 -3.00874
lowerneck -7.05352 -5.84703 -9.93403
upperneck 13.1585 -7.50713 6.66529
head 5.76297 -3.66639 3.16263
rclavicle -5.18083e-014 -3.33958e-014
rhumerus -31.5151 24.0758 -92.9304
rradius 42.9184
rwrist 10.6096
rhand -8.12234 -48.7628
rfingers 7.12502
rthumb 17.7911 -437.969
lclavicle -5.18083e-014 -3.33958e-014
lhumerus -46.3539 10.107 72.0094
lradius 38.7937
lwrist -17.1557
lhand -13.1225 -26.1316
lfingers 7.12502
lthumb 12.9751 3.44493
rfemur 16.5798 14.4567 35.8131
rtibia 3.18055e-015
rfoot -11.0397 -13.534
rtoes -8.51958
lfemur -40.5791 -34.1519 -5.31875
ltibia 25.7874
lfoot -38.7033 30.0902
ltoes 14.9064
1462
root -2.33501 15.2314 -34.0737 7.36465 95.8072 362.171
lowerback 8.41551 1.84306 4.81791
upperback -3.44511 3.09213 0.401518
thorax -8.15214 1.27341 -2.75005
lowerneck -7.13852 -5.83483 -10.3115
upperneck 13.1971 -7.48981 7.02767
head 5.81641 -3.65116 3.33784
rclavicle 1.06847e-015 -1.03368e-014
rhumerus -30.9673 21.53 -92.0035
rradius 42.5819
rwrist 13.0596
rhand -7.25815 -48.4843
rfingers 7.12502
rthumb 18.6225 -437.613
lclavicle 1.06847e-015 -1.03368e-014
lhumerus -45.7505 10.3893 71.775
lradius 39.1565
lwrist -16.3292
lhand -13.5017 -26.3873
lfingers 7.12502
lthumb 12.6095 3.21208
rfemur 17.0169 14.2555 36.0278
rtibia -9.54166e-015
rfoot -10.9856 -12.739
rtoes -6.38078
lfemur -40.1131 -32.8859 -5.809
ltibia 26.1604
lfoot -36.9413 29.3201
ltoes 13.3716
1463
root -2.21632 15.2456 -34.1152 9.57273 95.6084 364.591
lowerback 8.45924 1.82276 5.08617
upperback -3.3355 3.08952 0.353686
thorax -8.04432 1.26097 -2.94934
lowerneck -7.18869 -5.8421 -10.0856
upperneck 13.1524 -7.51355 6.95561
head 5.80125 -3.65601 3.27526
rclavicle 1.58655e-014 1.31198e-014
rhumerus -30.6346 20.7992 -91.6997
rradius 41.9489
rwrist 13.5954
rhand -7.07855 -48.5489
rfingers 7.12502
rthumb 18.7953 -437.661
lclavicle 1.58655e-014 1.31198e-014
lhumerus -45.0194 10.1006 71.6101
lradius 39.5121
lwrist -15.1553
lhand -14.1007 -26.4781
lfingers 7.12502
lthumb 12.032 3.15604
rfemur 17.6477 13.6805 36.0732
rtibia -9.54166e-015
rfoot -11.1108 -11.8101
rtoes -3.51762
lfemur -39.0822 -31.1853 -7.0117
ltibia 26.3928
lfoot -34.1497 27.6507
ltoes 12.0726
1464
root -2.09263 15.2434 -34.148 12.3405 94.7064 367.317
lowerback 8.2243 2.06406 4.95732
upperback -3.27518 3.37376 0.281584
thorax -7.82002 1.41244 -2.98022
lowerneck -7.31517 -5.83749 -9.94948
upperneck 13.228 -7.54007 7.11783
head 5.8491 -3.64858 3.29951
rclavicle 2.4376e-014 2.70347e-014
rhumerus -30.3415 20.1025 -91.4406
rradius 41.3352
rwrist 14.0123
rhand -6.73644 -48.5712
rfingers 7.12502
rthumb 19.1243 -437.651
lclavicle 2.4376e-014 2.70347e-014
lhumerus -44.2902 9.75118 71.3947
lradius 39.8442
lwrist -14.0839
lhand -14.6627 -26.4994
lfingers 7.12502
lthumb 11.4901 3.16565
rfemur 18.1362 13.8327 36.0423
rtibia 0
rfoot -10.6349 -11.2268
rtoes -5.24199
lfemur -38.1397 -29.011 -8.21473
ltibia 26.4463
lfoot -30.8715 27.5696
ltoes 4.00796
1465
root -1.97119 15.2138 -34.1984 12.7639 94.3327 367.809
lowerback 8.17749 2.03097 4.90199
upperback -3.24272 3.31412 0.230007
thorax -7.76239 1.38666 -2.99216
lowerneck -7.42693 -5.77462 -9.904
upperneck 13.2996 -7.47007 7.22996
head 5.88651 -3.60241 3.33147
rclavicle -2.26739e-014 7.55382e-015
rhumerus -30.352 19.9373 -91.284
rradius 40.9208
rwrist 14.0895
rhand -6.48893 -48.9566
rfingers 7.12502
rthumb 19.3623 -438.013
lclavicle -2.26739e-014 7.55382e-015
lhumerus -43.7556 9.95881 70.9959
lradius 40.107
lwrist -13.4724
lhand -14.8535 -26.5508
lfingers 7.12502
lthumb 11.306 3.12444
rfemur 18.7165 13.4216 35.8625
rtibia 1.27222e-014
rfoot -10.0894 -10.8664
rtoes -7.18141
lfemur -37.2158 -26.5783 -10.0003
ltibia 26.3256
lfoot -26.199 27.8935
ltoes -9.88291
